# xmcd
# 
# Track frame offsets:
#     150
#     22662
#     43037
#     65512
# 
# Disc length: 1141
# 
# Revision: 4
# Processed by: cddbd v1.5.2PL0 Copyright (c) Steve Scherf et al.
# Submitted via: BonkEnc v1.0.8
# 
DISCID=28047304
DTITLE=木村カエラ - happiness!!!
DYEAR=2004
DGENRE=JPop
TTITLE0=happiness!!!
TTITLE1=unite
TTITLE2=happiness!!!(INSTRUMENTALl)
TTITLE3=unite(instrumental)
EXTD=
EXTT0=
EXTT1=
EXTT2=
EXTT3=
PLAYORDER=
